# AST/ASF file generated using VICON BodyLanguage
# -----------------------------------------------
:version 1.10
:name VICON
:units
  mass 1.0
  length 0.45
  angle deg
:documentation
   .ast/.asf automatically generated from VICON data using
   VICON BodyBuilder and BodyLanguage model FoxedUp or BRILLIANT.MOD
:root
   order TX TY TZ RX RY RZ
   axis XYZ
   position 0 0 0  
   orientation 0 0 0 
:bonedata
  begin
     id 1 
     name lhipjoint
     direction 0.603808 -0.713975 0.35448 
     length 2.2025 
     axis 0 0 0  XYZ
  end
  begin
     id 2 
     name lfemur
     direction 0.34202 -0.939693 0  
     length 6.55877  
     axis 0 0 20  XYZ
    dof rx ry rz
    limits (-160.0 20.0)
           (-70.0 70.0)
           (-60.0 70.0)
  end
  begin
     id 3 
     name ltibia
     direction 0.34202 -0.939693 0   
     length 6.80302   
     axis 0 0 20   XYZ
    dof rx
    limits (-10.0 170.0)
  end
  begin
     id 4 
     name lfoot
     direction 0.091848 -0.25235 0.963267   
     length 2.03446   
     axis -90 7.62852e-016 20   XYZ
    dof rx rz
    limits (-45.0 90.0)
           (-70.0 20.0)
  end
  begin
     id 5 
     name ltoes
     direction 1.53608e-011 -4.21925e-011 1   
     length 1.02033   
     axis -90 7.62852e-016 20   XYZ
    dof rx
    limits (-90.0 20.0)
  end
  begin
     id 6 
     name rhipjoint
     direction -0.587285 -0.724947 0.359928   
     length 2.16916  
     axis 0 0 0  XYZ 
  end
  begin
     id 7 
     name rfemur
     direction -0.34202 -0.939693 0   
     length 6.43173   
     axis 0 0 -20   XYZ
    dof rx ry rz
    limits (-160.0 20.0)
           (-70.0 70.0)
           (-70.0 60.0)
  end
  begin
     id 8 
     name rtibia
     direction -0.34202 -0.939693 0   
     length 6.70662   
     axis 0 0 -20   XYZ
    dof rx
    limits (-10.0 170.0)
 end
 begin
     id 9 
     name rfoot
     direction -0.11854 -0.325686 0.938018   
     length 2.0773  
     axis -90 -7.62852e-016 -20   XYZ
    dof rx rz
    limits (-45.0 90.0)
           (-20.0 70.0)
  end
  begin
     id 10 
     name rtoes
     direction -1.53547e-011 -4.21838e-011 1   
     length 1.03267   
     axis -90 -7.62852e-016 -20   XYZ
    dof rx
    limits (-90.0 20.0)
  end
  begin
     id 11 
     name lowerback
     direction -0.0286554 0.999539 0.0100613   
     length 2.08751   
     axis 0 0 0   XYZ
    dof rx ry rz
    limits (-20.0 45.0)
           (-30.0 30.0)
           (-30.0 30.0)
  end
  begin
     id 12 
     name upperback
     direction 0.0227093 0.999705 -0.00860929   
     length 2.08517   
     axis 0 0 0   XYZ
    dof rx ry rz
    limits (-20.0 45.0)
           (-30.0 30.0)
           (-30.0 30.0)
  end
  begin
     id 13 
     name thorax
     direction 0.0351627 0.999285 -0.013892   
     length 2.08412   
     axis 0 0 0   XYZ
    dof rx ry rz
    limits (-20.0 45.0)
           (-30.0 30.0)
           (-30.0 30.0)
  end
  begin
     id 14 
     name lowerneck
     direction -0.0696283 0.997344 0.0213922   
     length 1.44164   
     axis 0 0 0   XYZ
    dof rx ry rz
    limits (-20.0 45.0)
           (-30.0 30.0)
           (-30.0 30.0)
  end
  begin
     id 15 
     name upperneck
     direction 0.0531 0.990412 -0.127531   
     length 1.45022   
     axis 0 0 0   XYZ
    dof rx ry rz
    limits (-20.0 45.0)
           (-30.0 30.0)
           (-30.0 30.0)
  end
  begin
     id 16
     name head
     direction 0.0188154 0.998548 -0.0504727  
     length 1.45845  
     axis 0 0 0   XYZ
    dof rx ry rz
    limits (-20.0 45.0)
           (-30.0 30.0)
           (-30.0 30.0)
  end
  begin
     id 17 
     name lclavicle
     direction 0.961559 0.260051 0.088188  
     length 2.86057  
     axis 0 0 0   XYZ
    dof ry rz
    limits (-20.0 10.0)
           (0.0 20.0)
  end
  begin
     id 18 
     name lhumerus
     direction 1 -4.48959e-011 2.88185e-027   
     length 4.36901   
     axis 180 -30 -90   XYZ
    dof rx ry rz
    limits (-60.0 90.0)
           (-90.0 90.0)
           (-90.0 90.0)
  end
  begin
     id 19
     name lradius
     direction 1 -4.48965e-011 -3.92618e-028   
     length 3.21737   
     axis 180 -30 -90   XYZ
    dof rx
    limits (-10.0 170.0)
  end
  begin
     id 20
     name lwrist
     direction 1 -4.49037e-011 2.57246e-027   
     length 1.60869   
     axis -1.61769e-015 90 90   XYZ
    dof ry
    limits (-180.0 0.0)
 end
  begin
     id 21 
     name lhand
     direction 1 -4.48807e-011 5.12958e-027   
     length 0.564313   
     axis -3.27988e-015 90 90   XYZ
    dof rx rz
    limits (-90.0 90.0)
           (-45.0 45.0)
  end
  begin
     id 22 
     name lfingers
     direction 1 -4.48879e-011 1.02687e-026   
     length 0.454963   
     axis -6.5598e-015 90 90   XYZ
    dof rx
    limits (0.0 90.0)
  end
  begin
     id 23
     name lthumb
     direction 0.707107 -6.3475e-011 0.707107   
     length 0.653239   
     axis -90 45 2.19363e-014   XYZ
    dof rx rz
    limits (-45.0 45.0)
           (-45.0 45.0)
  end
  begin
     id 24 
     name rclavicle
     direction -0.954677 0.253915 0.155304   
     length 3.11497  
     axis 0 0 0   XYZ 
    dof ry rz
    limits (-10.0 20.0)
           (-20.0 0.0)
  end
  begin
     id 25 
     name rhumerus
     direction -1 -4.48958e-011 -8.20169e-028  
     length 4.34118   
     axis 180 30 90   XYZ
    dof rx ry rz
    limits (-90.0 60.0)
           (-90.0 90.0)
           (-90.0 90.0)
  end
  begin
     id 26 
     name rradius
     direction -1 -4.48978e-011 1.5676e-027   
     length 3.09531   
     axis 180 30 90   XYZ
    dof rx
    limits (-10.0 170.0)
  end
  begin
     id 27 
     name rwrist
     direction -1 -4.49001e-011 2.57123e-027   
     length 1.54765   
     axis -1.61769e-015 -90 -90   XYZ
    dof ry
    limits (-180.0 0.0)
  end
  begin
     id 28
     name rhand
     direction -1 -4.48847e-011 5.13225e-027   
     length 0.597446   
     axis -3.27988e-015 -90 -90   XYZ
    dof rx rz
    limits (-90.0 90.0)
           (-45.0 45.0)
  end
  begin
     id 29
     name rfingers
     direction -1 -4.49094e-011 1.02974e-026   
     length 0.481677   
     axis -6.5598e-015 -90 -90   XYZ
    dof rx
    limits (0.0 90.0)
  end
  begin
     id 30
     name rthumb
     direction -0.707107 -6.34859e-011 0.707107   
     length 0.691594   
     axis -90 -45 -2.19363e-014   XYZ
    dof rx rz
    limits (-45.0 45.0)
           (-45.0 45.0)
  end
:hierarchy
  begin
    root lhipjoint rhipjoint lowerback
    lhipjoint lfemur
    lfemur ltibia
    ltibia lfoot
    lfoot ltoes
    rhipjoint rfemur
    rfemur rtibia
    rtibia rfoot
    rfoot rtoes
    lowerback upperback
    upperback thorax
    thorax lowerneck lclavicle rclavicle
    lowerneck upperneck
    upperneck head
    lclavicle lhumerus
    lhumerus lradius
    lradius lwrist
    lwrist lhand lthumb
    lhand lfingers
    rclavicle rhumerus
    rhumerus rradius
    rradius rwrist
    rwrist rhand rthumb
    rhand rfingers
  end

#!OML:ASF I:\Acrobat_Osman\acrobat\cartwheel_test 2\Patient 1\Session 1\acrobat.ASF
:FULLY-SPECIFIED
:DEGREES
1584
root 6.17673 15.1269 -11.0606 3.1765 -26.8476 2.47717
lowerback 1.7592 -0.560625 -5.02587
upperback 0.606671 -0.825218 2.42219
thorax -0.25476 -0.422288 5.34655
lowerneck -7.59712 -11.7861 -16.2363
upperneck 1.04484 -15.2696 18.2521
head 4.29043 -7.21206 7.05251
rclavicle 0 -6.36111e-015
rhumerus -52.0256 0.999704 -14.2189
rradius 17.3797
rwrist 49.4168
rhand 12.7439 16.3245
rfingers 7.12502
rthumb 37.7239 -9.54933
lclavicle 0 -6.36111e-015
lhumerus 63.1003 62.8275 20.4049
lradius 41.9483
lwrist 45.4868
lhand -15.671 42.6688
lfingers 7.12502
lthumb 10.5176 792.386
rfemur -17.2983 4.87558 20.8363
rtibia 44.3562
rfoot -27.7446 -2.57393
rtoes -16.3341
lfemur -193.827 172.978 -207.826
ltibia 41.6421
lfoot -25.326 10.0899
ltoes -37.5405
1585
root 6.19784 15.0797 -11.1346 2.74412 -26.5823 2.78524
lowerback 2.17231 -0.621906 -5.30174
upperback 0.778955 -0.93017 2.45245
thorax -0.289779 -0.478826 5.54216
lowerneck -7.20144 -11.9136 -16.3219
upperneck 0.248561 -15.3877 18.1973
head 4.00992 -7.30498 7.06549
rclavicle 1.35174e-014 -9.54166e-015
rhumerus -51.295 -2.76006 -15.7429
rradius 17.1736
rwrist 49.6053
rhand 10.5747 16.3203
rfingers 7.12502
rthumb 35.6712 -10.0763
lclavicle 1.35174e-014 -9.54166e-015
lhumerus 62.4088 60.7184 21.6568
lradius 42.465
lwrist 45.9327
lhand -13.8651 44.3973
lfingers 7.12502
lthumb 12.2592 794.018
rfemur -17.7223 5.09505 20.7182
rtibia 45.2081
rfoot -28.5197 -3.05479
rtoes -12.9036
lfemur -194.193 173.336 -207.977
ltibia 42.3355
lfoot -25.0865 10.0837
ltoes -39.1854
1586
root 6.2058 15.0564 -11.2014 2.40415 -25.8488 3.03598
lowerback 2.23275 -0.825541 -5.71291
upperback 0.86853 -1.21261 2.6831
thorax -0.178332 -0.628418 6.02508
lowerneck -6.62986 -12.0001 -16.7702
upperneck -0.0589401 -15.4877 17.9259
head 3.84893 -7.39254 7.07102
rclavicle -1.42131e-014 -1.82882e-014
rhumerus -50.3963 -6.79882 -17.6317
rradius 16.6916
rwrist 50.7979
rhand 8.00434 16.9252
rfingers 7.12502
rthumb 33.2312 -10.026
lclavicle -1.42131e-014 -1.82882e-014
lhumerus 60.8651 57.9582 23.1314
lradius 42.995
lwrist 46.2936
lhand -12.5575 45.2471
lfingers 7.12502
lthumb 13.5197 794.788
rfemur -18.0372 4.58367 20.706
rtibia 45.9034
rfoot -28.9372 -3.67451
rtoes -12.0329
lfemur -194.606 173.773 -207.977
ltibia 42.9859
lfoot -25.0942 8.92356
ltoes -38.7089
1587
root 6.20302 15.0559 -11.2558 2.03113 -24.9739 3.33116
lowerback 2.03874 -1.09977 -6.24044
upperback 0.896904 -1.57878 2.96498
thorax 0.0375302 -0.823951 6.62599
lowerneck -6.14065 -12.0047 -17.3944
upperneck 0.294885 -15.5227 17.5216
head 3.8868 -7.43687 7.05385
rclavicle 8.64713e-015 7.95139e-016
rhumerus -49.0949 -11.0071 -20.1412
rradius 15.9239
rwrist 53.3107
rhand 5.42055 17.5563
rfingers 7.12502
rthumb 30.771 -9.88859
lclavicle 8.64713e-015 7.95139e-016
lhumerus 58.4358 54.5666 24.3519
lradius 43.336
lwrist 46.2122
lhand -12.3246 46.8596
lfingers 7.12502
lthumb 13.7442 796.386
rfemur -18.1111 3.79555 20.6297
rtibia 46.3139
rfoot -28.8942 -4.1506
rtoes -12.2809
lfemur -194.824 174.052 -207.982
ltibia 43.408
lfoot -25.1212 7.52661
ltoes -37.7708
1588
root 6.19885 15.0775 -11.2986 1.61091 -24.2265 3.63101
lowerback 1.78355 -1.28258 -6.61153
upperback 0.833556 -1.81567 3.1264
thorax 0.171295 -0.948523 7.007
lowerneck -5.83145 -11.9891 -17.6856
upperneck 1.18963 -15.5684 16.8276
head 4.06363 -7.48017 6.87427
rclavicle -1.99779e-014 -1.59028e-014
rhumerus -47.6644 -15.1397 -23.576
rradius 15.139
rwrist 56.1489
rhand 3.35216 16.1107
rfingers 7.12502
rthumb 28.797 -11.6878
lclavicle -1.99779e-014 -1.59028e-014
lhumerus 54.8005 50.1674 24.7161
lradius 43.195
lwrist 45.9642
lhand -13.0919 46.5209
lfingers 7.12502
lthumb 13.0046 796.096
rfemur -17.948 3.08089 20.4705
rtibia 46.4331
rfoot -28.8678 -4.26921
rtoes -11.0698
lfemur -194.718 174.068 -208.014
ltibia 43.4894
lfoot -25.1348 6.20178
ltoes -36.9328
1589
root 6.19749 15.1112 -11.3333 1.13622 -23.6453 3.80582
lowerback 1.64033 -1.32243 -6.65559
upperback 0.728779 -1.8623 3.21279
thorax 0.155475 -0.968453 7.12215
lowerneck -5.86343 -12.0418 -17.5139
upperneck 2.42809 -15.6825 15.7035
head 4.33632 -7.55187 6.45732
rclavicle 6.14245e-014 3.10104e-014
rhumerus -46.1693 -19.318 -27.7182
rradius 14.4765
rwrist 58.685
rhand 1.2751 19.0746
rfingers 7.12502
rthumb 26.8111 -9.0449
lclavicle 6.14245e-014 3.10104e-014
lhumerus 51.0865 44.9573 25.2551
lradius 42.8621
lwrist 45.5094
lhand -13.8093 45.665
lfingers 7.12502
lthumb 12.313 795.282
rfemur -17.5551 2.49068 20.3729
rtibia 46.3428
rfoot -28.7681 -4.21285
rtoes -9.62958
lfemur -194.261 173.939 -207.967
ltibia 43.2645
lfoot -25.2427 5.02726
ltoes -35.6119
1590
root 6.19788 15.1393 -11.3685 0.79469 -23.2537 3.94154
lowerback 1.39947 -1.33215 -6.62371
upperback 0.531995 -1.86284 3.38149
thorax 0.0914027 -0.960261 7.27982
lowerneck -5.74927 -12.0319 -17.448
upperneck 3.33513 -15.6736 14.5248
head 4.47292 -7.58111 6.0711
rclavicle 3.0911e-014 -1.59028e-015
rhumerus -44.1247 -22.9862 -32.6236
rradius 13.9707
rwrist 60.3396
rhand -1.82225 19.7454
rfingers 7.12502
rthumb 23.8439 -8.79473
lclavicle 3.0911e-014 -1.59028e-015
lhumerus 47.062 39.0702 25.662
lradius 42.0426
lwrist 44.7919
lhand -13.6357 47.6446
lfingers 7.12502
lthumb 12.4804 797.252
rfemur -17.255 2.05688 20.2953
rtibia 46.1592
rfoot -28.5053 -4.29513
rtoes -9.32661
lfemur -193.843 173.823 -207.93
ltibia 42.8977
lfoot -25.3633 4.0487
ltoes -34.1039
1591
root 6.19855 15.1549 -11.4068 0.632253 -22.9631 4.14772
lowerback 0.917034 -1.36916 -6.61818
upperback 0.284865 -1.88698 3.56328
thorax 0.116337 -0.96592 7.46089
lowerneck -5.30035 -11.9503 -17.4524
upperneck 3.58276 -15.5618 13.4801
head 4.3612 -7.57511 5.78319
rclavicle -3.1408e-014 -4.77083e-015
rhumerus -41.229 -25.269 -38.8323
rradius 13.7774
rwrist 59.6833
rhand -4.70819 20.168
rfingers 7.12502
rthumb 21.0738 -8.70683
lclavicle -3.1408e-014 -4.77083e-015
lhumerus 41.0761 32.0077 24.3859
lradius 42.3958
lwrist 46.1254
lhand -13.7367 49.1196
lfingers 7.12502
lthumb 12.383 798.733
rfemur -17.1694 1.8164 20.1566
rtibia 45.9903
rfoot -28.4522 -4.60922
rtoes -9.86248
lfemur -193.691 173.841 -208.006
ltibia 42.5845
lfoot -25.4578 3.39099
ltoes -33.1637
1592
root 6.20286 15.1599 -11.4482 0.505261 -22.7701 4.31901
lowerback 0.435995 -1.32634 -6.40474
upperback 0.0624841 -1.80312 3.62553
thorax 0.136222 -0.916971 7.39447
lowerneck -4.95197 -11.8769 -17.2635
upperneck 3.69206 -15.4639 12.5796
head 4.22759 -7.56448 5.50904
rclavicle -1.02374e-014 -1.59028e-015
rhumerus -37.7019 -25.8935 -46.3631
rradius 13.9743
rwrist 56.529
rhand -6.95519 20.788
rfingers 7.12502
rthumb 18.9139 -8.31239
lclavicle -1.02374e-014 -1.59028e-015
lhumerus 36.9552 24.4505 24.9921
lradius 41.8846
lwrist 45.4127
lhand -13.974 48.9096
lfingers 7.12502
lthumb 12.1542 798.536
rfemur -17.1782 1.69195 20.0417
rtibia 45.9128
rfoot -28.6954 -4.89685
rtoes -10.5486
lfemur -193.719 173.956 -208.12
ltibia 42.4732
lfoot -25.5026 3.29084
ltoes -33.1696
1593
root 6.21387 15.1439 -11.4956 0.345387 -22.8267 4.44064
lowerback 0.122846 -1.15563 -6.09907
upperback -0.157845 -1.55859 3.69597
thorax 0.0345056 -0.782811 7.29004
lowerneck -4.95432 -11.7986 -17.1478
upperneck 4.08503 -15.3344 11.8686
head 4.25733 -7.52281 5.28148
rclavicle 1.41137e-014 1.43125e-014
rhumerus -33.6739 -24.6697 -54.5794
rradius 14.5287
rwrist 51.8819
rhand -9.032 21.1993
rfingers 7.12502
rthumb 16.9156 -8.08399
lclavicle 1.41137e-014 1.43125e-014
lhumerus 34.9644 18.0785 28.6175
lradius 39.864
lwrist 42.4299
lhand -13.3085 49.4215
lfingers 7.12502
lthumb 12.7958 799.009
rfemur -17.2579 1.63522 19.9458
rtibia 45.9882
rfoot -29.0936 -5.05108
rtoes -11.5454
lfemur -193.888 174.007 -208.256
ltibia 42.6436
lfoot -25.597 3.613
ltoes -33.4497
